<?xml version="1.0" encoding="utf-8"?>
<!-- Generator: Adobe Illustrator 18.1.1, SVG Export Plug-In . SVG Version: 6.00 Build 0)  -->
<!DOCTYPE svg PUBLIC "-//W3C//DTD SVG 1.1//EN" "http://www.w3.org/Graphics/SVG/1.1/DTD/svg11.dtd">
<svg version="1.1" id="Layer_1" xmlns="http://www.w3.org/2000/svg" xmlns:xlink="http://www.w3.org/1999/xlink" x="0px" y="0px"
	 width="330px" height="17.4px" viewBox="0 0 330 17.4" enable-background="new 0 0 330 17.4" xml:space="preserve">
<g opacity="0.7">
	<g>
		<path fill="#FFFFFF" d="M5.5,0c1.4,0,2.7,0.2,3.7,0.7s2,1.1,2.8,1.9c0.8,0.8,1.3,1.7,1.7,2.7c0.4,1,0.6,2.1,0.6,3.1
			c0,1.1-0.2,2.1-0.6,3.1s-1,1.9-1.7,2.7c-0.8,0.8-1.7,1.4-2.8,1.9S6.9,17,5.5,17H0V0H5.5z M2.8,2.5v12h2.7c0.9,0,1.8-0.2,2.5-0.5
			c0.7-0.3,1.4-0.8,1.9-1.3c0.5-0.6,0.9-1.2,1.2-1.9c0.3-0.7,0.4-1.5,0.4-2.2S11.3,7,11,6.3c-0.3-0.7-0.6-1.4-1.2-1.9
			C9.4,3.8,8.8,3.3,8,3C7.3,2.7,6.4,2.5,5.5,2.5H2.8z"/>
		<path fill="#FFFFFF" d="M17,0h2.9v17H17V0z"/>
		<path fill="#FFFFFF" d="M23.4,0h6.1c0.9,0,1.7,0.2,2.5,0.5c0.7,0.3,1.4,0.7,1.9,1.3S34.8,3,35,3.7c0.3,0.7,0.4,1.5,0.4,2.3
			c0,0.6-0.1,1.2-0.2,1.8c-0.2,0.6-0.4,1.1-0.7,1.5c-0.3,0.5-0.7,0.9-1.1,1.3c-0.4,0.4-0.9,0.7-1.5,0.9l3.4,5.5h-3.2L29,11.9h-2.8
			V17h-2.8V0z M29.5,9.4c0.5,0,0.9-0.1,1.3-0.3s0.7-0.4,1-0.8c0.3-0.3,0.5-0.7,0.6-1.1c0.2-0.4,0.2-0.9,0.2-1.3
			c0-0.5-0.1-0.9-0.2-1.3c-0.2-0.4-0.4-0.8-0.6-1.1c-0.3-0.3-0.6-0.6-1-0.8S30,2.5,29.5,2.5h-3.3v6.9H29.5z"/>
		<path fill="#FFFFFF" d="M40.9,2.5v4.8h7v2.5h-7v4.7h7V17h-9.8V0h9.8v2.5H40.9z"/>
		<path fill="#FFFFFF" d="M67.5,11.5c-0.2,0.8-0.5,1.6-1,2.3c-0.5,0.7-1,1.3-1.7,1.9c-0.7,0.5-1.5,0.9-2.4,1.2s-1.9,0.4-2.9,0.4
			c-1.4,0-2.6-0.2-3.7-0.7c-1.1-0.5-2-1.1-2.8-2s-1.4-1.8-1.8-2.8c-0.4-1.1-0.6-2.2-0.6-3.4c0-1.1,0.2-2.3,0.6-3.3s1-2,1.7-2.8
			c0.8-0.8,1.7-1.5,2.7-2c1.1-0.5,2.3-0.7,3.6-0.7c1.3,0,2.4,0.2,3.4,0.5c1,0.3,1.8,0.8,2.5,1.4c0.7,0.6,1.2,1.3,1.7,2.1
			c0.4,0.8,0.7,1.7,0.8,2.6h-2.9c-0.1-0.6-0.3-1.1-0.6-1.6c-0.3-0.5-0.6-0.9-1.1-1.3S62,2.6,61.4,2.4c-0.6-0.2-1.2-0.3-1.9-0.3
			c-1,0-1.8,0.2-2.6,0.5C56.1,3,55.5,3.4,55,4c-0.5,0.6-0.9,1.3-1.2,2c-0.3,0.8-0.4,1.6-0.4,2.4c0,0.9,0.1,1.7,0.4,2.5
			c0.3,0.8,0.7,1.5,1.2,2c0.5,0.6,1.2,1.1,2,1.4c0.8,0.3,1.7,0.5,2.7,0.5c0.5,0,1-0.1,1.5-0.3c0.5-0.2,0.9-0.4,1.4-0.7
			c0.4-0.3,0.8-0.7,1.1-1.1c0.3-0.4,0.5-0.9,0.7-1.3H67.5z"/>
		<path fill="#FFFFFF" d="M72.3,2.5h-4.2V0h11.2v2.5h-4.2V17h-2.8V2.5z"/>
		<path fill="#FFFFFF" d="M88.1,17.4c-1.4,0-2.6-0.2-3.7-0.7s-2-1.2-2.8-2s-1.3-1.8-1.7-2.8c-0.4-1.1-0.6-2.2-0.6-3.3
			s0.2-2.3,0.6-3.3c0.4-1.1,1-2,1.7-2.8c0.8-0.8,1.7-1.5,2.8-2c1.1-0.5,2.3-0.7,3.7-0.7c1.4,0,2.6,0.2,3.7,0.7c1.1,0.5,2,1.2,2.8,2
			c0.8,0.8,1.3,1.8,1.7,2.8c0.4,1.1,0.6,2.2,0.6,3.3s-0.2,2.3-0.6,3.3c-0.4,1.1-1,2-1.7,2.8s-1.7,1.5-2.8,2S89.5,17.4,88.1,17.4z
			 M88.1,14.9c0.9,0,1.7-0.2,2.4-0.5c0.7-0.4,1.3-0.8,1.8-1.4c0.5-0.6,0.9-1.3,1.2-2c0.3-0.8,0.4-1.6,0.4-2.4c0-0.8-0.1-1.6-0.4-2.4
			c-0.3-0.8-0.7-1.4-1.2-2S91.3,3,90.6,2.6c-0.7-0.4-1.5-0.5-2.4-0.5s-1.7,0.2-2.4,0.5C85,3,84.4,3.4,83.9,4s-0.9,1.3-1.2,2
			c-0.3,0.8-0.4,1.6-0.4,2.4c0,0.8,0.1,1.6,0.4,2.4c0.3,0.8,0.7,1.4,1.2,2c0.5,0.6,1.1,1.1,1.8,1.4C86.4,14.7,87.2,14.9,88.1,14.9z"
			/>
		<path fill="#FFFFFF" d="M99.6,0h6.1c0.9,0,1.7,0.2,2.5,0.5c0.7,0.3,1.4,0.7,1.9,1.3s0.9,1.2,1.2,1.9c0.3,0.7,0.4,1.5,0.4,2.3
			c0,0.6-0.1,1.2-0.2,1.8c-0.2,0.6-0.4,1.1-0.7,1.5c-0.3,0.5-0.7,0.9-1.1,1.3c-0.4,0.4-0.9,0.7-1.5,0.9l3.4,5.5h-3.2l-3.1-5.1h-2.8
			V17h-2.8V0z M105.7,9.4c0.5,0,0.9-0.1,1.3-0.3s0.7-0.4,1-0.8c0.3-0.3,0.5-0.7,0.6-1.1c0.2-0.4,0.2-0.9,0.2-1.3
			c0-0.5-0.1-0.9-0.2-1.3c-0.2-0.4-0.4-0.8-0.6-1.1c-0.3-0.3-0.6-0.6-1-0.8s-0.8-0.3-1.3-0.3h-3.3v6.9H105.7z"/>
		<path fill="#FFFFFF" d="M128.3,17.4c-1.4,0-2.6-0.2-3.7-0.7s-2-1.2-2.8-2s-1.3-1.8-1.7-2.8c-0.4-1.1-0.6-2.2-0.6-3.3
			s0.2-2.3,0.6-3.3c0.4-1.1,1-2,1.7-2.8c0.8-0.8,1.7-1.5,2.8-2c1.1-0.5,2.3-0.7,3.7-0.7c1.4,0,2.6,0.2,3.7,0.7c1.1,0.5,2,1.2,2.8,2
			c0.8,0.8,1.3,1.8,1.7,2.8c0.4,1.1,0.6,2.2,0.6,3.3s-0.2,2.3-0.6,3.3c-0.4,1.1-1,2-1.7,2.8s-1.7,1.5-2.8,2S129.7,17.4,128.3,17.4z
			 M128.3,14.9c0.9,0,1.7-0.2,2.4-0.5c0.7-0.4,1.3-0.8,1.8-1.4c0.5-0.6,0.9-1.3,1.2-2c0.3-0.8,0.4-1.6,0.4-2.4
			c0-0.8-0.1-1.6-0.4-2.4c-0.3-0.8-0.7-1.4-1.2-2s-1.1-1.1-1.8-1.4c-0.7-0.4-1.5-0.5-2.4-0.5s-1.7,0.2-2.4,0.5
			C125.2,3,124.6,3.4,124,4s-0.9,1.3-1.2,2c-0.3,0.8-0.4,1.6-0.4,2.4c0,0.8,0.1,1.6,0.4,2.4c0.3,0.8,0.7,1.4,1.2,2
			c0.5,0.6,1.1,1.1,1.8,1.4C126.6,14.7,127.4,14.9,128.3,14.9z"/>
		<path fill="#FFFFFF" d="M142.6,2.5v5.4h7v2.5h-7V17h-2.8V0h9.8v2.5H142.6z"/>
		<path fill="#FFFFFF" d="M158.9,0h6.1c0.9,0,1.7,0.2,2.5,0.5c0.7,0.3,1.4,0.7,1.9,1.3s0.9,1.2,1.2,1.9c0.3,0.7,0.4,1.5,0.4,2.3
			c0,0.8-0.1,1.6-0.4,2.3c-0.3,0.7-0.7,1.3-1.2,1.9c-0.5,0.5-1.2,1-1.9,1.3c-0.7,0.3-1.6,0.5-2.5,0.5h-3.3V17h-2.8V0z M164.9,9.4
			c0.5,0,0.9-0.1,1.3-0.3s0.7-0.4,1-0.8c0.3-0.3,0.5-0.7,0.6-1.1c0.2-0.4,0.2-0.9,0.2-1.3c0-0.5-0.1-0.9-0.2-1.3
			c-0.2-0.4-0.4-0.8-0.6-1.1c-0.3-0.3-0.6-0.6-1-0.8s-0.8-0.3-1.3-0.3h-3.3v6.9H164.9z"/>
		<path fill="#FFFFFF" d="M183.1,9.8h-7V17h-2.8V0h2.8v7.3h7V0h2.8v17h-2.8V9.8z"/>
		<path fill="#FFFFFF" d="M197.3,17.4c-1.4,0-2.6-0.2-3.7-0.7s-2-1.2-2.8-2s-1.3-1.8-1.7-2.8c-0.4-1.1-0.6-2.2-0.6-3.3
			s0.2-2.3,0.6-3.3c0.4-1.1,1-2,1.7-2.8c0.8-0.8,1.7-1.5,2.8-2c1.1-0.5,2.3-0.7,3.7-0.7c1.4,0,2.6,0.2,3.7,0.7c1.1,0.5,2,1.2,2.8,2
			c0.8,0.8,1.3,1.8,1.7,2.8c0.4,1.1,0.6,2.2,0.6,3.3s-0.2,2.3-0.6,3.3c-0.4,1.1-1,2-1.7,2.8s-1.7,1.5-2.8,2S198.7,17.4,197.3,17.4z
			 M197.3,14.9c0.9,0,1.7-0.2,2.4-0.5c0.7-0.4,1.3-0.8,1.8-1.4c0.5-0.6,0.9-1.3,1.2-2c0.3-0.8,0.4-1.6,0.4-2.4
			c0-0.8-0.1-1.6-0.4-2.4c-0.3-0.8-0.7-1.4-1.2-2s-1.1-1.1-1.8-1.4c-0.7-0.4-1.5-0.5-2.4-0.5s-1.7,0.2-2.4,0.5
			C194.2,3,193.6,3.4,193,4s-0.9,1.3-1.2,2c-0.3,0.8-0.4,1.6-0.4,2.4c0,0.8,0.1,1.6,0.4,2.4c0.3,0.8,0.7,1.4,1.2,2
			c0.5,0.6,1.1,1.1,1.8,1.4C195.6,14.7,196.4,14.9,197.3,14.9z"/>
		<path fill="#FFFFFF" d="M210.3,2.5h-4.2V0h11.2v2.5h-4.2V17h-2.8V2.5z"/>
		<path fill="#FFFFFF" d="M226.2,17.4c-1.4,0-2.6-0.2-3.7-0.7s-2-1.2-2.8-2s-1.3-1.8-1.7-2.8c-0.4-1.1-0.6-2.2-0.6-3.3
			s0.2-2.3,0.6-3.3c0.4-1.1,1-2,1.7-2.8c0.8-0.8,1.7-1.5,2.8-2c1.1-0.5,2.3-0.7,3.7-0.7c1.4,0,2.6,0.2,3.7,0.7c1.1,0.5,2,1.2,2.8,2
			c0.8,0.8,1.3,1.8,1.7,2.8c0.4,1.1,0.6,2.2,0.6,3.3s-0.2,2.3-0.6,3.3c-0.4,1.1-1,2-1.7,2.8s-1.7,1.5-2.8,2S227.5,17.4,226.2,17.4z
			 M226.2,14.9c0.9,0,1.7-0.2,2.4-0.5c0.7-0.4,1.3-0.8,1.8-1.4c0.5-0.6,0.9-1.3,1.2-2c0.3-0.8,0.4-1.6,0.4-2.4
			c0-0.8-0.1-1.6-0.4-2.4c-0.3-0.8-0.7-1.4-1.2-2s-1.1-1.1-1.8-1.4c-0.7-0.4-1.5-0.5-2.4-0.5s-1.7,0.2-2.4,0.5
			C223,3,222.4,3.4,221.9,4s-0.9,1.3-1.2,2c-0.3,0.8-0.4,1.6-0.4,2.4c0,0.8,0.1,1.6,0.4,2.4c0.3,0.8,0.7,1.4,1.2,2
			c0.5,0.6,1.1,1.1,1.8,1.4C224.5,14.7,225.3,14.9,226.2,14.9z"/>
		<path fill="#FFFFFF" d="M247.6,8.5h8.1v2.5h-1.9c-0.2,1-0.5,1.8-1,2.6c-0.4,0.8-1,1.5-1.7,2c-0.7,0.6-1.5,1-2.4,1.3
			s-2,0.5-3.2,0.5c-1.4,0-2.6-0.2-3.7-0.7s-2-1.2-2.7-2c-0.7-0.8-1.3-1.8-1.7-2.8c-0.4-1.1-0.6-2.2-0.6-3.3s0.2-2.3,0.6-3.3
			c0.4-1.1,1-2,1.7-2.8c0.8-0.8,1.7-1.5,2.7-2c1.1-0.5,2.3-0.7,3.6-0.7c1,0,1.9,0.1,2.8,0.4s1.6,0.7,2.2,1.2
			c0.6,0.5,1.2,1.1,1.5,1.8c0.4,0.7,0.6,1.4,0.7,2.1h-2.8c-0.1-0.4-0.2-0.8-0.5-1.2s-0.6-0.7-0.9-1c-0.4-0.3-0.8-0.5-1.3-0.6
			s-1.1-0.2-1.6-0.2c-0.9,0-1.7,0.2-2.4,0.5s-1.3,0.8-1.9,1.4c-0.5,0.6-0.9,1.3-1.2,2c-0.3,0.8-0.4,1.6-0.4,2.4
			c0,0.8,0.1,1.6,0.4,2.4c0.3,0.8,0.6,1.5,1.2,2c0.5,0.6,1.2,1.1,1.9,1.4c0.8,0.4,1.7,0.5,2.7,0.5c0.7,0,1.4-0.1,1.9-0.3
			s1.1-0.5,1.5-0.9c0.4-0.4,0.7-0.8,1-1.3c0.3-0.5,0.4-1,0.5-1.5h-3.2V8.5z"/>
		<path fill="#FFFFFF" d="M257.9,0h6.1c0.9,0,1.7,0.2,2.5,0.5c0.7,0.3,1.4,0.7,1.9,1.3s0.9,1.2,1.2,1.9c0.3,0.7,0.4,1.5,0.4,2.3
			c0,0.6-0.1,1.2-0.2,1.8c-0.2,0.6-0.4,1.1-0.7,1.5c-0.3,0.5-0.7,0.9-1.1,1.3c-0.4,0.4-0.9,0.7-1.5,0.9l3.4,5.5h-3.2l-3.1-5.1h-2.8
			V17h-2.8V0z M264,9.4c0.5,0,0.9-0.1,1.3-0.3s0.7-0.4,1-0.8c0.3-0.3,0.5-0.7,0.6-1.1c0.2-0.4,0.2-0.9,0.2-1.3
			c0-0.5-0.1-0.9-0.2-1.3c-0.2-0.4-0.4-0.8-0.6-1.1c-0.3-0.3-0.6-0.6-1-0.8s-0.8-0.3-1.3-0.3h-3.3v6.9H264z"/>
		<path fill="#FFFFFF" d="M281.7,17l-0.7-2.2h-6.4l-0.7,2.2H271l5.9-17h2l5.9,17H281.7z M277.8,4.6l-2.3,7.7h4.7L277.8,4.6z"/>
		<path fill="#FFFFFF" d="M286.5,0h6.1c0.9,0,1.7,0.2,2.5,0.5c0.7,0.3,1.4,0.7,1.9,1.3s0.9,1.2,1.2,1.9c0.3,0.7,0.4,1.5,0.4,2.3
			c0,0.8-0.1,1.6-0.4,2.3c-0.3,0.7-0.7,1.3-1.2,1.9c-0.5,0.5-1.2,1-1.9,1.3c-0.7,0.3-1.6,0.5-2.5,0.5h-3.3V17h-2.8V0z M292.6,9.4
			c0.5,0,0.9-0.1,1.3-0.3s0.7-0.4,1-0.8c0.3-0.3,0.5-0.7,0.6-1.1c0.2-0.4,0.2-0.9,0.2-1.3c0-0.5-0.1-0.9-0.2-1.3
			c-0.2-0.4-0.4-0.8-0.6-1.1c-0.3-0.3-0.6-0.6-1-0.8s-0.8-0.3-1.3-0.3h-3.3v6.9H292.6z"/>
		<path fill="#FFFFFF" d="M310.7,9.8h-7V17H301V0h2.8v7.3h7V0h2.8v17h-2.8V9.8z"/>
		<path fill="#FFFFFF" d="M321.6,17h-3.1l3.4-6.8L315.6,0h3.2l4.5,7.3l3.6-7.3h3.1L321.6,17z"/>
	</g>
</g>
</svg>
