<?xml version="1.0" encoding="utf-8"?>
<!-- Generator: Adobe Illustrator 18.1.1, SVG Export Plug-In . SVG Version: 6.00 Build 0)  -->
<!DOCTYPE svg PUBLIC "-//W3C//DTD SVG 1.1//EN" "http://www.w3.org/Graphics/SVG/1.1/DTD/svg11.dtd">
<svg version="1.1" id="Layer_1" xmlns="http://www.w3.org/2000/svg" xmlns:xlink="http://www.w3.org/1999/xlink" x="0px" y="0px"
	 width="466.9px" height="54.6px" viewBox="0 0 466.9 54.6" enable-background="new 0 0 466.9 54.6" xml:space="preserve">
<g opacity="0.7">
	<g>
		<path fill="#FFFFFF" d="M69.8,54.6H50.7V20.7l-8,33.9H28.1l-9-33.9v33.9H0V0h26.7l8.7,32.6L44,0h25.9V54.6z"/>
		<path fill="#FFFFFF" d="M98.3,14.3v6.5h17.1v13.5H98.3v6.1h17.1v14.3H78.4V0h36.9v14.3H98.3z"/>
		<path fill="#FFFFFF" d="M123.3,0h29.5c3.2,0,6.1,0.6,8.7,1.7c2.6,1.1,4.8,2.6,6.7,4.6c1.8,1.9,3.3,4.2,4.2,6.7
			c1,2.5,1.5,5.2,1.5,8c0,3.6-0.8,7-2.4,10.1c-1.6,3.1-3.9,5.6-6.9,7.4l11,16.1h-23.5l-9-12.7v12.7h-19.9V0z M147.9,27
			c1.7,0,3.1-0.6,4.1-1.8c1-1.2,1.6-2.6,1.6-4.3c0-1.7-0.5-3.1-1.5-4.3c-1-1.2-2.4-1.8-4.1-1.8h-4.8V27H147.9z"/>
		<path fill="#FFFFFF" d="M181.2,0h29.5c3.2,0,6.1,0.6,8.7,1.7c2.6,1.1,4.8,2.6,6.7,4.6c1.8,1.9,3.3,4.2,4.2,6.7
			c1,2.5,1.5,5.2,1.5,8c0,3.6-0.8,7-2.4,10.1c-1.6,3.1-3.9,5.6-6.9,7.4l11,16.1h-23.5l-9-12.7v12.7h-19.9V0z M205.8,27
			c1.7,0,3.1-0.6,4.1-1.8c1-1.2,1.6-2.6,1.6-4.3c0-1.7-0.5-3.1-1.5-4.3c-1-1.2-2.4-1.8-4.1-1.8h-4.8V27H205.8z"/>
		<path fill="#FFFFFF" d="M239.1,0H259v54.6h-19.9V0z"/>
		<path fill="#FFFFFF" d="M337.4,54.6h-19.1V20.7l-8,33.9h-14.6l-9-33.9v33.9h-19.1V0h26.7l8.7,32.6L311.5,0h25.9V54.6z"/>
		<path fill="#FFFFFF" d="M384.2,54.6l-1.6-6h-17.2l-1.6,6h-21.6L362.8,0h22.3l21.4,54.6H384.2z M374,17.1l-4.9,17.8h9.7L374,17.1z"
			/>
		<path fill="#FFFFFF" d="M447,29.1V0h19.9v54.6H447L431.1,27v27.5h-19.9V0h19.9L447,29.1z"/>
	</g>
</g>
</svg>
