<?xml version="1.0" encoding="utf-8"?>
<!-- Generator: Adobe Illustrator 18.1.1, SVG Export Plug-In . SVG Version: 6.00 Build 0)  -->
<!DOCTYPE svg PUBLIC "-//W3C//DTD SVG 1.1//EN" "http://www.w3.org/Graphics/SVG/1.1/DTD/svg11.dtd">
<svg version="1.1" id="Layer_1" xmlns="http://www.w3.org/2000/svg" xmlns:xlink="http://www.w3.org/1999/xlink" x="0px" y="0px"
	 width="419.6px" height="64.9px" viewBox="0 0 419.6 64.9" enable-background="new 0 0 419.6 64.9" xml:space="preserve">
<g opacity="0.7">
	<path fill="#FFFFFF" d="M78.5,63.1H57.1V25l-9,38.1H31.6L21.5,25v38.1H0V1.8h30l9.7,36.6l9.7-36.6h29.1V63.1z"/>
	<path fill="#FFFFFF" d="M88.2,1.8h22.3v61.4H88.2V1.8z"/>
	<path fill="#FFFFFF" d="M185.1,36.6c-0.4,3.8-1.4,7.4-3.1,10.8c-1.6,3.4-3.9,6.4-6.7,9c-2.8,2.6-6.2,4.6-10.3,6.1
		c-4,1.5-8.6,2.3-13.8,2.3c-5.4,0-10.3-0.9-14.5-2.7c-4.2-1.8-7.8-4.2-10.8-7.1c-3-3-5.2-6.4-6.7-10.3c-1.5-3.9-2.3-8-2.3-12.3
		c0-4.3,0.8-8.4,2.3-12.3c1.5-3.9,3.7-7.4,6.7-10.3c2.9-3,6.5-5.4,10.7-7.1c4.2-1.8,9-2.7,14.4-2.7c5.1,0,9.7,0.8,13.8,2.3
		c4,1.5,7.5,3.6,10.3,6.1c2.8,2.6,5.1,5.6,6.7,9c1.6,3.4,2.6,7.1,3,11h-23.3c-0.5-2.3-1.5-4.2-3.2-5.8c-1.6-1.6-4-2.4-7.2-2.4
		c-1.9,0-3.6,0.3-5,1c-1.4,0.7-2.6,1.6-3.5,2.7c-0.9,1.1-1.6,2.4-2.1,3.9c-0.5,1.5-0.7,3-0.7,4.6c0,3.6,1,6.5,3,8.7
		c2,2.2,4.8,3.4,8.3,3.4c3.3,0,5.8-0.8,7.5-2.4c1.7-1.6,2.7-3.4,3.1-5.5H185.1z"/>
	<path fill="#FFFFFF" d="M226.8,41.8h-13v21.3h-22.3V1.8h22.3v21.7h13V1.8h22.3v61.4h-22.3V41.8z"/>
	<path fill="#FFFFFF" d="M301.8,63.1l-1.8-6.7h-19.4l-1.8,6.7h-24.3l23.3-61.4h25.1l24.1,61.4H301.8z M290.3,20.9L284.8,41h11
		L290.3,20.9z"/>
	<path fill="#FFFFFF" d="M354.5,17.8v7.3h19.2v15.2h-19.2v6.8h19.2v16h-41.5V1.8h41.5v16H354.5z"/>
	<path fill="#FFFFFF" d="M419.6,44.3v18.8h-36.9V1.8H405v42.5H419.6z"/>
</g>
</svg>
